<svg width="100" height="101" viewBox="0 0 100 101" fill="none" xmlns="http://www.w3.org/2000/svg">
<mask id="mask0_853_2370" style="mask-type:luminance" maskUnits="userSpaceOnUse" x="0" y="0" width="100" height="101">
<path d="M0 0.600098H100V100.6H0V0.600098Z" fill="white"/>
</mask>
<g mask="url(#mask0_853_2370)">
<path d="M37.499 21.4341H29.165C26.955 21.4341 24.8354 22.312 23.2727 23.8748C21.71 25.4375 20.832 27.557 20.832 29.7671V79.7671C20.8319 80.8615 21.0473 81.9452 21.4661 82.9563C21.8848 83.9674 22.4986 84.8862 23.2724 85.66C24.0462 86.4339 24.9648 87.0478 25.9759 87.4667C26.987 87.8855 28.0706 88.1011 29.165 88.1011H70.832C71.9264 88.1011 73.0101 87.8855 74.0212 87.4667C75.0322 87.0478 75.9509 86.4339 76.7247 85.66C77.4985 84.8862 78.1123 83.9674 78.531 82.9563C78.9497 81.9452 79.1652 80.8615 79.165 79.7671V29.7671C79.165 27.557 78.2871 25.4375 76.7243 23.8748C75.1616 22.312 73.0421 21.4341 70.832 21.4341H62.499" stroke="#1240BF" stroke-width="4.167" stroke-linecap="round" stroke-linejoin="round"/>
<path d="M58.335 46.4341H47.918C46.2604 46.4341 44.6707 47.0926 43.4986 48.2647C42.3265 49.4368 41.668 51.0265 41.668 52.6841C41.668 54.3417 42.3265 55.9314 43.4986 57.1035C44.6707 58.2756 46.2604 58.9341 47.918 58.9341H52.085C53.7426 58.9341 55.3323 59.5926 56.5044 60.7647C57.6765 61.9368 58.335 63.5265 58.335 65.1841C58.335 66.8417 57.6765 68.4314 56.5044 69.6035C55.3323 70.7756 53.7426 71.4341 52.085 71.4341H41.668M50 71.4331V75.5991M50 42.2661V46.4331M37.5 21.4331C37.5 19.223 38.3779 17.1035 39.9407 15.5408C41.5034 13.978 43.623 13.1001 45.833 13.1001H54.167C56.3772 13.1001 58.4968 13.9781 60.0597 15.5409C61.6225 17.1038 62.5005 19.2234 62.5005 21.4336C62.5005 23.6438 61.6225 25.7634 60.0597 27.3263C58.4968 28.8891 56.3772 29.7671 54.167 29.7671H45.833C44.7386 29.7671 43.6549 29.5515 42.6439 29.1327C41.6328 28.7139 40.7141 28.1 39.9403 27.3261C39.1665 26.5522 38.5527 25.6334 38.134 24.6223C37.7153 23.6112 37.4999 22.5275 37.5 21.4331Z" stroke="#1240BF" stroke-width="4.167" stroke-linecap="round" stroke-linejoin="round"/>
</g>
</svg>
