<?xml version="1.0" encoding="UTF-8"?>
<svg id="_圖層_1" xmlns="http://www.w3.org/2000/svg" version="1.1" viewBox="0 0 282.6 250">
  <!-- Generator: Adobe Illustrator 29.6.1, SVG Export Plug-In . SVG Version: 2.1.1 Build 9)  -->
  <defs>
    <style>
      .st0 {
        fill: #fff;
      }
    </style>
  </defs>
  <path class="st0" d="M141.3,32.9s82.4,0,103,5.6c11.3,3,20.2,11.9,23.2,23.2,5.6,20.6,5.4,63.5,5.4,63.5,0,.3,0,42.8-5.4,63.3-3,11.3-11.9,20.2-23.2,23.2-20.6,5.4-102.7,5.4-103,5.4,0,0-82.2,0-103-5.6-11.3-3-20.2-11.9-23.2-23.2-5.4-20.3-5.4-62.9-5.4-63.3,0,0,0-42.7,5.4-63.3,3-11.3,12.1-20.4,23.2-23.4,20.6-5.4,103-5.4,103-5.4ZM115.1,163l68.5-39.5-68.5-39.5v79Z"/>
</svg>