<?xml version="1.0" encoding="UTF-8"?>
<svg id="_圖層_1" xmlns="http://www.w3.org/2000/svg" version="1.1" viewBox="0 0 250 250">
  <!-- Generator: Adobe Illustrator 29.6.1, SVG Export Plug-In . SVG Version: 2.1.1 Build 9)  -->
  <defs>
    <style>
      .st0 {
        fill: #fff;
      }
    </style>
  </defs>
  <path class="st0" d="M125,13.81c-30.2,0-33.9.1-45.8.7-11.8.5-19.9,2.4-27,5.2-7.3,2.8-13.5,6.6-19.7,12.8-6.2,6.2-10,12.4-12.8,19.7-2.8,7.1-4.6,15.1-5.2,27-.5,11.8-.7,15.6-.7,45.8s.1,33.9.7,45.8c.5,11.8,2.4,19.9,5.2,27,2.8,7.3,6.6,13.5,12.8,19.7,6.2,6.2,12.4,10,19.7,12.8,7.1,2.7,15.1,4.6,27,5.2,11.8.5,15.6.7,45.8.7s33.9-.1,45.8-.7c11.8-.5,19.9-2.4,27-5.2,7.3-2.8,13.5-6.6,19.7-12.8,6.2-6.2,10-12.4,12.8-19.7,2.7-7.1,4.6-15.1,5.2-27,.5-11.8.7-15.6.7-45.8s-.1-33.9-.7-45.8c-.6-11.8-2.4-19.9-5.2-27-2.8-7.3-6.6-13.5-12.8-19.7s-12.4-10-19.7-12.8c-7.1-2.7-15.2-4.6-27-5.2-11.8-.5-15.6-.7-45.8-.7h0ZM115,33.91h10c29.7,0,33.2.1,44.9.6,10.8.5,16.7,2.3,20.6,3.8,5.2,2,8.9,4.4,12.8,8.3,3.9,3.9,6.3,7.6,8.3,12.8,1.5,3.9,3.3,9.8,3.8,20.6.5,11.7.6,15.2.6,44.9s-.1,33.2-.6,44.9c-.5,10.8-2.3,16.7-3.8,20.6-2,5.2-4.4,8.9-8.3,12.8-3.9,3.9-7.6,6.3-12.8,8.3-3.9,1.5-9.8,3.3-20.6,3.8-11.7.5-15.2.6-44.9.6s-33.2-.1-44.9-.6c-10.8-.5-16.7-2.3-20.6-3.8-5.2-2-8.9-4.4-12.8-8.3-3.9-3.9-6.3-7.6-8.3-12.8-1.5-3.9-3.3-9.8-3.8-20.6-.5-11.7-.6-15.2-.6-44.9s.1-33.2.6-44.9c.5-10.8,2.3-16.7,3.8-20.6,2-5.2,4.4-8.9,8.3-12.8,3.9-3.9,7.6-6.3,12.8-8.3,3.9-1.5,9.8-3.3,20.6-3.8,10.2-.5,14.2-.6,34.9-.6h0ZM184.3,52.31c-7.4,0-13.3,6-13.3,13.3s6,13.3,13.3,13.3,13.3-6,13.3-13.3-6-13.3-13.3-13.3h0ZM125,67.91c-31.5,0-57,25.5-57,57s25.5,57,57,57,57-25.5,57-57-25.5-57-57-57h0ZM125,87.91c20.4,0,37,16.6,37,37s-16.6,37-37,37-37-16.6-37-37,16.6-37,37-37h0Z"/>
</svg>