<?xml version="1.0" encoding="UTF-8"?>
<svg id="_圖層_1" xmlns="http://www.w3.org/2000/svg" version="1.1" viewBox="0 0 250 250">
  <!-- Generator: Adobe Illustrator 29.6.1, SVG Export Plug-In . SVG Version: 2.1.1 Build 9)  -->
  <defs>
    <style>
      .st0 {
        fill: #fff;
      }
    </style>
  </defs>
  <path class="st0" d="M125,7.86c64.8,0,117.8,53,117.8,117.8,0,58.2-42.5,106.7-98.2,116.5l-.7-.5s.4,0,.7-.1v-83.1h26.2l5.2-32.7h-31.4v-22.9c0-9.2,3.3-16.4,17.7-16.4h15.1v-30.1c-8.5-1.3-17.7-2.6-26.2-2.6-26.8,0-45.8,16.4-45.8,45.8v26.2h-29.4v32.7h29.4v83.1s.4,0,.7.1l-.7.5C49.7,232.25,7.2,183.85,7.2,125.65,7.2,60.86,60.2,7.86,125,7.86Z"/>
</svg>