<svg width="100" height="101" viewBox="0 0 100 101" fill="none" xmlns="http://www.w3.org/2000/svg">
<mask id="mask0_853_2448" style="mask-type:luminance" maskUnits="userSpaceOnUse" x="0" y="0" width="100" height="101">
<path d="M0 0.399902H100V100.4H0V0.399902Z" fill="white"/>
</mask>
<g mask="url(#mask0_853_2448)">
<path d="M70.833 83.7329H25C21.6848 83.7329 18.5054 82.416 16.1612 80.0718C13.817 77.7275 12.5 74.5481 12.5 71.2329C12.5 67.9177 13.817 64.7383 16.1612 62.3941C18.5054 60.0499 21.6848 58.7329 25 58.7329H70.833C67.5178 58.7329 64.3384 60.0499 61.9942 62.3941C59.65 64.7383 58.333 67.9177 58.333 71.2329C58.333 74.5481 59.65 77.7275 61.9942 80.0718C64.3384 82.416 67.5178 83.7329 70.833 83.7329ZM70.833 83.7329H75C78.3152 83.7329 81.4946 82.416 83.8388 80.0718C86.183 77.7275 87.5 74.5481 87.5 71.2329V25.3989C87.5 23.1889 86.6221 21.0693 85.0593 19.5066C83.4966 17.9439 81.377 17.0659 79.167 17.0659H37.5C35.29 17.0662 33.1707 17.9442 31.608 19.5069C30.0453 21.0696 29.1673 23.189 29.167 25.3989V58.7329" stroke="#1240BF" stroke-width="4.167" stroke-linecap="round" stroke-linejoin="round"/>
</g>
</svg>
