<?xml version="1.0" encoding="UTF-8"?>
<svg id="_圖層_1" xmlns="http://www.w3.org/2000/svg" version="1.1" viewBox="0 0 200 200">
  <!-- Generator: Adobe Illustrator 29.6.1, SVG Export Plug-In . SVG Version: 2.1.1 Build 9)  -->
  <defs>
    <style>
      .st0 {
        fill: #fff;
      }
    </style>
  </defs>
  <path class="st0" d="M198.8,99.94v-.9c0-.3-.1-.6-.2-1v-.4c0-.2-.2-.3-.3-.5-.1-.3-.3-.6-.5-.8-.2-.3-.4-.5-.6-.8-.1-.1-.2-.3-.3-.4l-40.6-36.5c-2.7-2.4-6.8-2.2-9.2.5s-2.2,6.8.5,9.2l28,25.2H7.7c-3.6,0-6.5,2.9-6.5,6.5s2.9,6.5,6.5,6.5h167.8l-28,25.2c-2.7,2.4-2.9,6.5-.5,9.2,1.3,1.4,3.1,2.1,4.8,2.1,1.6,0,3.1-.6,4.4-1.7l40.6-36.5s.2-.3.3-.4c.2-.2.4-.5.6-.8.2-.3.3-.5.5-.8,0-.2.2-.3.3-.5v-.4c0-.3.2-.6.2-1v-.9l.1-.1Z"/>
</svg>