<?xml version="1.0" encoding="UTF-8"?>
<svg id="_圖層_1" data-name="圖層 1" xmlns="http://www.w3.org/2000/svg" viewBox="0 0 637.84 108.28">
  <defs>
    <style>
      .cls-1 {
        fill: blue;
      }
    </style>
  </defs>
  <path class="cls-1" d="M96.6,26.36c4.34,2.6,8.47,5.11,12.64,7.55,4.27,2.51,3.76,2.24,3.8,6.69,.12,12.27,.17,24.55,.26,36.82,.03,4.56,0,9.12,.21,13.67,.15,3.2-2.79,4.66-5.37,3.15-4.72-2.76-9.6-5.25-14.39-7.89-.74-.41-1.3-.43-2.08-.02-10.47,5.57-20.98,11.06-31.43,16.67-1.87,1-3.4,.96-5.26-.01-16.86-8.78-33.75-17.5-50.65-26.18-1.86-.96-2.69-2.18-2.68-4.32,.06-16.68,.03-33.35,.04-50.03,0-.67-.01-1.38,.18-2.02,.59-1.89,2.65-2.63,4.62-1.68,4.24,2.06,8.46,4.14,12.69,6.22,.42,.21,.85,.39,1.46,.67,.03-.56,.06-.97,.06-1.38,0-5.6,0-11.2,0-16.8,0-3.29,2.33-4.66,5.25-3.09,10.2,5.48,20.41,10.95,30.59,16.46,.85,.46,1.47,.43,2.3,0,10.89-5.71,21.81-11.36,32.7-17.08,1.57-.82,2.95-.85,4.5,.04,4.92,2.83,9.87,5.58,14.83,8.34,1.24,.69,2.11,1.58,2.11,3.08,0,1.5-.87,2.38-2.12,3.07-4.33,2.4-8.64,4.84-12.96,7.27-.38,.21-.74,.45-1.3,.78ZM5.48,22.66v1.61c0,15.8,.01,31.59-.02,47.39,0,1.04,.35,1.53,1.25,1.99,16.65,8.57,33.28,17.18,49.9,25.8,.72,.37,1.28,.36,1.99-.01,10.37-5.51,20.74-11.01,31.13-16.46,.81-.43,1.02-.91,1.02-1.77-.02-16.72-.02-33.43-.02-50.15,0-.38-.04-.76-.07-1.35-.63,.33-1.11,.58-1.59,.84-9.82,5.53-19.63,11.04-29.44,16.59-1.3,.74-2.49,.81-3.85,.15-8.52-4.2-17.06-8.37-25.59-12.54-1.78-.87-3.56-1.73-5.59-2.72,0,.71,0,1.17,0,1.63,0,7.32,.03,14.64-.03,21.95,0,1.11,.38,1.6,1.33,2.06,10.73,5.22,21.44,10.49,32.16,15.75,1.37,.67,1.85,1.79,1.29,2.89-.52,1.04-1.65,1.28-3.02,.61-11.54-5.66-23.07-11.34-34.62-16.98-.81-.39-1.06-.85-1.05-1.73,.03-9,.01-18,.04-26.99,0-.82-.21-1.28-1-1.64-2.61-1.21-5.17-2.52-7.75-3.79-2.07-1.01-4.14-2.01-6.47-3.13ZM24.66,8.15c-.03,.59-.06,.94-.06,1.3,0,5.68,.02,11.36-.02,17.04,0,.9,.3,1.34,1.09,1.72,10.34,5.03,20.67,10.08,30.98,15.16,.7,.35,1.21,.3,1.86-.07,16.28-9.19,32.57-18.35,48.86-27.53,.25-.14,.48-.33,.81-.57-.46-.28-.79-.5-1.13-.69-3.97-2.23-7.97-4.41-11.9-6.71-1.03-.6-1.8-.58-2.84-.04-10.81,5.68-21.66,11.3-32.48,16.98-1.53,.8-2.87,.8-4.4-.03-7.33-4-14.69-7.93-22.04-11.88-2.84-1.53-5.69-3.05-8.74-4.68ZM109.48,90.48c0-1.86,0-3.45,0-5.04-.08-12.51-.16-25.01-.24-37.52-.02-2.84-.05-5.68-.04-8.51,0-.72-.28-1.14-.91-1.51-4.2-2.47-8.37-4.99-12.55-7.48-.32-.19-.66-.34-1.09-.55-.04,.42-.08,.66-.08,.89,0,16.91,0,33.82-.02,50.72,0,.78,.35,1.12,.97,1.45,2.75,1.46,5.48,2.97,8.21,4.45,1.85,1,3.7,2,5.75,3.11Z"/>
  <path d="M372.3,21.78v2.84c-.11,.07-.16,.15-.23,.15-2.34,.17-2.31,.17-2.73,2.5-.83,4.66-2.06,9.19-4.26,13.42-.19,.36-.13,1.02,.08,1.38,1.84,3.07,4.25,5.58,7.45,7.38-.74,.89-1.44,1.74-2.19,2.65-3.22-1.86-5.61-4.54-7.67-7.73-2.66,3.4-5.83,6.02-9.63,7.95-.62-.91-1.22-1.8-1.9-2.81,.38-.21,.74-.42,1.12-.61,3.24-1.7,6.01-3.94,8.11-6.95,.25-.35,.4-.97,.27-1.36-1.04-3.35-2.15-6.68-3.24-10.01-.05-.15-.13-.28-.22-.49-.9,1.51-1.76,2.97-2.66,4.49-.8-.67-1.5-1.25-2.12-1.77-2.1,1.74-4.18,3.4-6.18,5.16-.32,.28-.25,1.01-.41,1.75,2.84-.37,5.46-.7,8.2-1.06v2.73c-2.63,.38-5.31,.77-8.06,1.18,0,2.07,0,4.07,0,6.06-.01,2.43-.59,3.14-3.03,3.41-1.3,.14-2.63,.02-4.05,.02-.27-.76-.58-1.6-.93-2.57,1.33,0,2.55-.03,3.77,0,.85,.02,1.22-.25,1.19-1.17-.07-1.71-.02-3.43-.02-5.34-1.43,.19-2.75,.36-4.07,.54-1.34,.18-2.68,.35-4.14,.54-.13-.99-.25-1.87-.39-2.88,2.89-.36,5.69-.71,8.7-1.08-.93-2.57,.92-3.55,2.56-4.68,.64-.44,1.19-1.02,2.05-1.76-2.27,0-4.21-.02-6.14,.02-.31,0-.63,.3-.92,.49-1.42,.96-2.82,1.93-4.27,2.91-.78-.84-1.49-1.59-2.12-2.27,2.9-2.09,5.79-4.16,8.67-6.24-.07-.13-.14-.27-.2-.4h-8.29v-2.86h7.01v-4.07h-5.21v-2.74h5.28v-4.32h2.91v4.27h4.28c.04,.75,.08,1.36,.12,1.96,.09,.03,.17,.05,.26,.08,.88-1.76,1.77-3.51,2.69-5.35,.9,.26,1.81,.53,3.03,.88-1.72,3.12-3.36,6.11-5.06,9.19h4.67v2.51c2.4-4.22,3.43-8.84,4.4-13.58,1.07,.17,2.04,.32,3.16,.49-.54,2.39-1.05,4.67-1.6,7.13h11.96Zm-12.95,3.09c.73,4.41,1.77,8.66,3.61,12.91,1.94-4.24,2.86-8.5,3.54-12.91h-7.15Zm-4.74,3.26c-1.91,0-3.6,.21-5.22-.05-2.54-.4-3.47,1.45-5.03,2.97,1.43,0,2.59-.04,3.74,.01,1.42,.07,2.96-.49,4.23,.94,.78-1.32,1.47-2.5,2.28-3.87Zm-10.12-2.93c1.31,.11,3.11-1.79,3.83-3.93h-3.83v3.93Z"/>
  <path d="M182.37,25.87v24.24h-4.69V16.13c1.19,0,2.38-.07,3.56,.04,.35,.03,.73,.54,.95,.91,4.32,7.24,8.62,14.49,12.92,21.73,.18,.31,.37,.61,.67,1.08,.26-.4,.47-.7,.65-1.02,4.2-7.17,8.42-14.33,12.57-21.53,.56-.97,1.17-1.36,2.26-1.25,.79,.08,1.6,.02,2.48,.02V50.13h-4.6V26.03c-.1-.02-.21-.04-.31-.06-1.28,2.14-2.57,4.28-3.85,6.42-2.51,4.22-5.02,8.45-7.53,12.67-.86,1.44-2.62,1.46-3.47,.04-3.6-5.99-7.19-11.99-10.79-17.99-.19-.32-.41-.63-.81-1.24Z"/>
  <path d="M150.05,34.93v10.97h19.67v4.23h-24.57V16.2h23.93v4.21h-19.02v10.38h16.91v4.14h-16.92Z"/>
  <path d="M573.38,52.14h-3.21v-13.36h-11.84c-.04,.77-.08,1.55-.12,2.38h-3.02V21.63h14.84v-7.39h3.28v7.29h15.09v19.49h-3.09c-.05-.73-.11-1.47-.16-2.26h-11.77v13.38Zm-3.36-16.58v-10.86h-11.68v10.86h11.68Zm3.37-.05h11.72v-10.81h-11.72v10.81Z"/>
  <path d="M455.64,39.5h3.83v2.87h-37.46v-2.82h3.96c0-2.21,.05-4.27,0-6.32-.14-4.91-.34-9.82-.47-14.74,0-.37,.24-.96,.53-1.08,2.34-1.01,4.71-1.93,7.16-2.92,.45,.74,.92,1.52,1.52,2.5-1.69,.61-3.29,1.28-4.95,1.76-1.04,.3-1.54,.69-1.39,1.87,.14,1.09,.03,2.21,.03,3.44h5.66v2.66h-5.31v5.03h5.39v2.7h-5.11v4.95h23.52c.11-1.51,.22-3.04,.33-4.72h-5.33v-2.7h5.37c.08-1.7,.15-3.3,.23-5.04h-5.43v-2.8h5.44v-5.05h-5.74v-2.72h8.83c-.2,7.71-.4,15.32-.6,23.13Z"/>
  <path d="M402.81,18v-2.2h9.62c-.28,4.31-.57,8.63-.86,13.07h3.08v7.57h-2.96v-5.03h-29.15v5.04h-3.03v-7.5h3.26c-.27-4.15-.53-8.19-.8-12.24,2.59-.69,5.08-1.38,7.59-1.98,.27-.07,.71,.31,.99,.58,.31,.3,.52,.69,.94,1.29-2.22,.56-4.27,1.09-6.46,1.64,.05,.54,.1,1.12,.16,1.84h5.91v2.23h-5.75c.04,.79,.08,1.44,.12,2.22h5.85v2.15h-5.68c.04,.82,.08,1.48,.11,2.19h7.27c-.7-.53-1.19-.91-1.81-1.38,1.47-.87,2.67-1.58,4.08-2.42-1.07-.62-1.94-1.12-2.82-1.62,1.17-1.59,1.24-1.61,2.87-.74,.56,.3,1.12,.6,1.69,.9,1.3-.78,2.04-3.26,4.23-1.26-.7,.8-1.42,1.63-2.18,2.49,.95,.73,1.85,1.43,2.89,2.24-.61,.57-1.14,1.07-1.66,1.57-1.04-.81-2.01-1.56-2.99-2.33-1.24,.82-2.43,1.6-3.83,2.52h14.96c.09-.66,.18-1.32,.29-2.13h-5.97v-2.16h6.11c.07-.77,.12-1.4,.19-2.2h-6.06v-2.18h6.15c.07-.75,.13-1.37,.2-2.16h-6.55Z"/>
  <path d="M469.91,36.47h-2.99v-7.51h3.24c-.27-4.17-.53-8.22-.8-12.24,2.62-.7,5.12-1.38,7.64-1.99,.25-.06,.67,.28,.9,.52,.32,.34,.55,.77,.95,1.36-2.19,.56-4.24,1.09-6.4,1.64,.04,.58,.08,1.15,.13,1.87h5.94v2.15h-5.68v2.22h5.86v2.18h-5.55v2.21h7.3c-.75-.49-1.29-.85-2-1.3,1.61-.95,2.82-1.67,4.24-2.51-1.09-.61-1.96-1.11-2.84-1.61q1.17-1.51,4.63,.15c.31-.27,.65-.54,.95-.85q1.32-1.38,3.28-.46c-.74,.85-1.46,1.68-2.22,2.56,.95,.74,1.89,1.47,2.89,2.24-.58,.55-1.1,1.03-1.66,1.56-1.03-.8-2.03-1.57-3.01-2.33-1.25,.83-2.44,1.62-3.82,2.53h14.98c.08-.67,.16-1.33,.25-2.12h-5.91v-2.18h6.04c.09-.77,.17-1.42,.27-2.24h-6.1v-2.17h6.18c.06-.75,.1-1.37,.16-2.15h-6.57v-2.19h9.65c-.28,4.32-.57,8.64-.86,13.09h3.05v7.57h-2.95c0-1.35-.03-2.73,.01-4.1,.03-.77-.22-1.04-1.02-1.03-9.16,.02-18.31,.02-27.47,.02-.19,0-.38,.04-.68,.06v5.07Z"/>
  <path d="M515.24,35.09c2.81,0,5.53-.07,8.24,.03,1.14,.04,1.67-.35,2-1.36,.27-.83,.65-1.62,1.05-2.59,1.02,.19,2.06,.38,3.25,.6-.59,1.12-1.11,2.12-1.73,3.31h13.45v17.1h-3.07c-.04-.49-.08-.92-.12-1.43h-20.01c-.06,.5-.12,.96-.18,1.47h-2.86v-17.14Zm23.06,8.99h-20.03v3.96h20.03v-3.96Zm0-6.45h-20.04v3.77h20.04v-3.77Z"/>
  <path d="M297.69,19.59c-1.97,.32-3.93,.64-5.93,.97-.33-.81-.63-1.53-.99-2.41,1.63-.33,3.22-.58,4.78-.98,2.63-.67,5.23-1.44,7.85-2.13,.32-.08,.81-.05,1.03,.14,.62,.55,1.14,1.21,1.87,2.02-1.61,.5-3.03,.98-4.48,1.36-.73,.19-1.04,.5-1.02,1.3,.06,1.91,.02,3.83,.02,5.84h5.06v3.02h-4.9c-.27,1.39-.37,2.52,.87,3.5,1.71,1.36,3.28,2.91,4.91,4.37-.11,.14-.21,.27-.32,.41-.6,.78-1.2,1.55-1.83,2.38-1.21-1.62-2.34-3.14-3.47-4.66-.09,.02-.18,.05-.26,.07v17.24h-3.08v-17.55c-1.85,3.44-3.45,6.95-5.98,10.06-.55-.97-1.05-1.84-1.5-2.63,1.34-2.15,2.75-4.18,3.93-6.33,1.15-2.12,2.07-4.36,3.2-6.81h-6.38v-2.96h6.63v-6.23Z"/>
  <path d="M398.97,41.36h16.56v2.74h-16.62c0,1.7,0,3.25,0,4.79-.01,2.07-.65,2.83-2.72,3.02-1.51,.14-3.03,.12-4.54,.23-.75,.05-1.18-.14-1.37-.92-.14-.56-.44-1.09-.72-1.74,1.71,0,3.33-.05,4.94,.02,1.02,.04,1.46-.28,1.4-1.36-.07-1.27-.02-2.54-.02-3.97h-17.27v-2.73h17.3c-.59-1.97,.91-2.11,2.02-2.63,1.37-.64,2.71-1.32,4.02-2.24h-15.65v-2.41h1.25c5.84,0,11.68,.09,17.51-.06,1.44-.04,2.31,.48,3.44,1.65-3.27,1.8-6.45,3.55-9.63,5.29l.11,.31Z"/>
  <path d="M466.05,41.42h16.99c.12-.14,.23-.21,.22-.26-.24-1.3,.54-1.76,1.6-2.18,1.55-.61,3.02-1.41,4.47-2.38h-15.58v-2.44c.43,0,.85,0,1.28,0,5.8,0,11.59,.08,17.39-.06,1.42-.03,2.34,.39,3.25,1.47-2.85,2.26-6.16,3.72-9.42,5.27,.05,.15,.11,.31,.16,.46h16.49v2.78h-16.55c0,1.52,0,2.91,0,4.29-.01,2.66-.61,3.35-3.23,3.56-1.31,.11-2.63,.09-3.95,.18-.82,.06-1.36-.13-1.56-1.03-.11-.53-.41-1.01-.67-1.62,1.72,0,3.34-.06,4.95,.02,1.12,.05,1.5-.36,1.43-1.45-.08-1.23-.02-2.47-.02-3.85h-17.26v-2.78Z"/>
  <path d="M327.02,33.4c-3.01,.55-5.75,1.05-8.59,1.56v5.07h8.23v2.8h-8.24v5.45h9.99v2.79h-23.49v-2.69h10.2v-5.53h-7.85v-2.78h7.84v-4.8c-2.18,.14-4.29,.19-6.38,.45-1.27,.16-1.97-.1-2.09-1.44-.02-.26-.15-.51-.27-.9,1.72-.14,3.35-.21,4.96-.42,4.27-.58,8.53-1.23,12.8-1.81,.42-.06,.99,.13,1.31,.41,.55,.46,.96,1.09,1.57,1.83Z"/>
  <path d="M174.48,81.4c1.6-2.73,3.09-5.27,4.58-7.81,.89-1.52,1.77-3.04,2.66-4.55q.98-1.67,3.16-1.34v19.6h-2.64v-13.69c-.08-.02-.15-.04-.23-.07-.17,.23-.36,.45-.51,.7-1.96,3.29-3.92,6.59-5.88,9.88-.78,1.31-1.59,1.32-2.37,.02-1.89-3.15-3.78-6.3-5.67-9.45-.2-.33-.42-.65-.86-.95v13.59h-2.72v-19.61c2-.44,2.13-.39,3.14,1.3,2.41,4.05,4.81,8.09,7.35,12.37Z"/>
  <path d="M224.02,16.19h4.81V50.12h-4.81V16.19Z"/>
  <path d="M526.7,84.73c-3.78,3.29-8.87,2.06-10.99-.24-2.41-2.62-2.56-6.92-.25-9.68,2.6-3.1,7.12-3.36,11.35-.55,.06-.62,.12-1.19,.18-1.82h2.42c.04,.15,.12,.3,.12,.45-.03,4.72,.04,9.44-.14,14.15-.12,3.11-2.1,5.15-5.19,5.72-2.91,.54-5.73,.26-8.38-1.14-.41-.22-.79-.51-1.25-.81,.47-.76,.88-1.42,1.32-2.14,1.73,1.21,3.57,1.89,5.63,1.91,3.82,.02,5.52-1.85,5.17-5.84Zm-5-10.04c-3.02,.02-5.13,2.03-5.08,4.86,.05,2.83,2.2,4.81,5.19,4.78,2.92-.03,5.01-2.04,5.02-4.82,0-2.84-2.11-4.83-5.12-4.82Z"/>
  <path d="M328.98,84.92c-4.57,2.62-8.82,2.28-11.29-.9-2.15-2.77-1.99-6.97,.37-9.49,2.71-2.89,7.18-3,11.16-.2,.03-.63,.06-1.21,.09-1.88h2.54c.02,.39,.06,.78,.06,1.17,0,3.84,0,7.67,0,11.51,0,.68-.04,1.36-.15,2.03-.53,3.37-2.17,5.1-5.55,5.67-2.57,.43-5.1,.16-7.5-.94-.6-.28-1.14-.69-1.79-1.09,.48-.77,.89-1.44,1.34-2.16,1.97,1.43,4.1,2.04,6.45,1.92,3.16-.17,4.94-2.52,4.27-5.64Zm-4.96-.59c2.97,.02,5.14-1.99,5.19-4.81,.05-2.74-2.09-4.79-5.02-4.83-3.02-.04-5.19,1.91-5.24,4.72-.05,2.78,2.13,4.9,5.07,4.92Z"/>
  <path d="M624.3,39.99c.88,.39,1.69,.71,2.46,1.11,.22,.11,.46,.48,.44,.7-.27,2.13-.48,4.29-.94,6.38-.44,1.96-1.88,3.13-3.87,3.17-3.91,.08-7.83,.09-11.74-.11-2.37-.12-3.28-1.28-3.49-3.63-.08-.91-.09-1.84-.09-2.75,0-5.88,0-11.75,0-17.63,0-.47,0-.94,0-1.5h3.2v1.31c0,6.32,0,12.63,0,18.95,0,2,.36,2.41,2.35,2.44,2.72,.04,5.44,.02,8.16,.01,1.84,0,2.58-.53,2.9-2.34,.29-1.65,.38-3.33,.55-5,.04-.34,.05-.69,.08-1.12Z"/>
  <path d="M307.69,16.35h18.48v12.98h-18.48v-12.98Zm15.44,10.33v-7.6h-12.47v7.6h12.47Z"/>
  <path d="M148.01,70.12v6.01h9.69v2.43h-9.69v6.26h11.3v2.53h-14.14v-19.69h13.81v2.46h-10.97Z"/>
  <path d="M392.02,74.37v-7.83h2.7v20.81h-2.52c-.03-.64-.06-1.25-.1-2.11-1.97,2.16-4.36,2.6-6.95,2.15-1.74-.31-3.22-1.17-4.32-2.6-2.3-3-2.04-7.75,.5-10.4,2.05-2.14,6.95-3.37,10.69-.03Zm-9.95,5.56c.01,3.03,2.04,5.15,4.95,5.16,2.98,0,5.02-2.12,5.01-5.22-.01-3.04-2.04-5.16-4.94-5.17-2.96,0-5.02,2.15-5.01,5.23Z"/>
  <path d="M271.41,66.52h2.61v7.82c1.77-1.69,3.71-2.15,5.84-2.05,3.02,.14,5.09,1.98,5.51,4.98,.08,.59,.16,1.19,.16,1.79,.02,2.72,0,5.43,0,8.25h-2.8c0-1.21,0-2.43,0-3.66,0-1.56,.03-3.12-.02-4.68-.09-2.81-1.42-4.22-3.95-4.24-2.73-.03-4.62,1.69-4.69,4.38-.07,2.44-.01,4.88-.02,7.32,0,.27-.03,.55-.05,.9h-2.6v-20.81Z"/>
  <path d="M558.84,70.41c-.59,.65-1.13,1.24-1.66,1.82-4.2-3.08-8.55-3-11.43,.19-2.54,2.81-2.52,7.44,.06,10.19,2.96,3.16,7.32,3.21,11.36,.1,.59,.56,1.18,1.13,1.77,1.7-3.34,4.08-10.8,4.28-14.86,.45-4.14-3.9-4.15-10.85-.04-14.71,4.08-3.82,11.57-3.68,14.8,.25Z"/>
  <path d="M610.92,80.72c.23,1.97,1.2,3.19,2.75,3.84,2.46,1.04,4.76,.69,6.9-1.22,.48,.55,.96,1.1,1.5,1.72-1.5,1.78-3.44,2.4-5.62,2.46-2.97,.08-5.57-.81-7.19-3.44-1.61-2.61-1.6-5.39-.19-8.1,1.64-3.13,5.55-4.52,9.12-3.33,3.24,1.08,5.27,4.5,4.7,8.07h-11.97Zm.06-1.97h9.28c-.24-2.51-2.12-4.16-4.69-4.14-2.49,.01-4.35,1.67-4.59,4.14Z"/>
  <path d="M575.43,80.74h-12.07c.21,1.86,1.14,3.04,2.65,3.79,2.19,1.09,4.77,.67,7-1.19,.48,.55,.96,1.1,1.48,1.71-1.06,1.42-2.49,2.14-4.08,2.3-1.48,.15-3.05,.14-4.49-.2-3.04-.71-5.11-3.33-5.32-6.35-.26-3.74,1.34-6.67,4.33-7.94,2.99-1.26,6.54-.59,8.61,1.7,1.53,1.69,2.03,3.75,1.88,6.18Zm-12.03-2.02h9.33c-.43-2.62-2.17-4.12-4.68-4.11-2.52,0-4.27,1.53-4.65,4.11Z"/>
  <path d="M436.24,27.96V14.54h2.71v3.69h6.84v2.72h-6.73v4.34h6.13c.2,.24,.3,.3,.3,.36,.02,3.76,.04,7.51,.04,11.27,0,1.01-.56,1.69-1.55,1.83-1.29,.18-2.61,.23-3.92,.33-.29-.81-.53-1.47-.78-2.19,.98,0,1.86,.06,2.72-.03,.3-.03,.8-.46,.81-.71,.06-2.7,.04-5.41,.04-8.21h-6.58Z"/>
  <path d="M223.11,80.72c.25,1.89,1.12,3.13,2.63,3.79,2.52,1.12,4.9,.76,7.05-1.16,.49,.57,.95,1.1,1.48,1.72-1.49,1.78-3.43,2.41-5.61,2.45-3.07,.07-5.74-.85-7.31-3.64-1.58-2.79-1.5-5.68,.23-8.4,1.86-2.92,5.71-4.01,9.13-2.69,3.05,1.17,4.87,4.4,4.38,7.93h-11.99Zm.11-1.97h9.26c-.37-2.67-2.36-4.29-4.99-4.12-2.41,.15-4.23,1.9-4.27,4.12Z"/>
  <path d="M436.57,85.14c-2.65,2.57-5.7,2.9-8.95,1.92-2.97-.9-4.64-3.05-4.98-6.11-.36-3.27,.62-6.07,3.65-7.71,2.74-1.49,5.57-1.42,8.16,.37,2.42,1.67,3.14,4.17,3,7.12h-12.07c.2,1.7,.93,2.91,2.32,3.62,2.62,1.34,5.08,.98,7.35-.99,.51,.6,.99,1.17,1.52,1.79Zm-1.85-6.39c-.26-2.53-2.13-4.16-4.7-4.14-2.51,.02-4.34,1.65-4.59,4.14h9.29Z"/>
  <path d="M441.11,76.21c-.39-.71-.72-1.33-1.15-2.12,.9-.45,1.66-1.07,2.51-1.21,1.79-.3,3.64-.61,5.43-.46,2.75,.22,4.48,2.01,4.63,4.79,.18,3.34,.04,6.69,.04,10.12h-2.53c-.04-.51-.07-.97-.12-1.57-2.14,1.94-4.57,2.11-7.11,1.44-2.16-.58-3.25-2.14-3.2-4.33,.05-1.97,1.16-3.36,3.32-3.81,1.27-.27,2.61-.23,3.92-.29,.91-.04,1.83,0,2.72,0,.71-1.97-.6-3.81-2.8-4.05-1.97-.21-3.38,.15-5.67,1.49Zm8.59,4.42c-1.91,.11-3.86,.11-5.77,.41-.59,.09-1.37,.96-1.49,1.58-.12,.63,.3,1.57,.79,2.06,1.01,1.01,3.53,.93,4.98,.04,1.44-.88,1.86-1.95,1.5-4.1Z"/>
  <path d="M353.55,78.77c.35-2.26-.83-3.81-2.94-4.05-1.95-.22-3.36,.14-5.67,1.48-.36-.64-.72-1.28-1.07-1.91,2.36-2.23,7.66-2.72,10.28-1.02,1.38,.9,2.14,2.24,2.19,3.8,.11,3.39,.03,6.78,.03,10.25h-2.51c-.05-.51-.09-.97-.14-1.56-2.11,1.94-4.51,2.1-7,1.45-2.2-.57-3.32-2.11-3.28-4.27,.03-2.03,1.15-3.42,3.37-3.9,1.19-.25,2.45-.23,3.68-.28,1.03-.04,2.06,0,3.07,0Zm.02,1.87c-1.93,.1-3.83,.14-5.72,.33-1.01,.1-1.63,.84-1.72,1.86-.09,.96,.38,1.74,1.25,2.13,1.63,.72,3.26,.61,4.78-.35,1.38-.87,1.78-2.15,1.4-3.97Z"/>
  <path d="M247.53,78.77c.22-2.48-1.01-3.92-3.29-4.07-1.94-.13-3.7,.38-5.34,1.54-.39-.69-.74-1.31-1.15-2.05,.42-.28,.79-.57,1.2-.78,2.38-1.2,4.89-1.44,7.46-.84,2.31,.54,3.79,2.21,3.88,4.59,.12,3.35,.03,6.71,.03,10.16h-2.52c-.05-.47-.1-.93-.15-1.5-2.14,1.87-4.53,2.07-7.03,1.39-2.19-.59-3.31-2.17-3.25-4.3,.06-2.01,1.21-3.41,3.43-3.85,1.24-.25,2.54-.22,3.81-.27,.95-.04,1.91,0,2.94,0Zm.02,1.88c-1.93,.09-3.8,.12-5.66,.29-1.06,.1-1.75,.83-1.81,1.92-.06,1.07,.51,1.8,1.49,2.22,3.14,1.36,6.24-.79,5.98-4.43Z"/>
  <path d="M498.56,87.37h-2.52v-14.92h2.45c.05,.54,.11,1.12,.19,1.87,1.58-1.51,3.37-2.09,5.41-2.05,3.47,.07,5.67,1.8,5.94,5.27,.25,3.21,.05,6.45,.05,9.77h-2.71c0-2.18,0-4.32,0-6.47,0-.68,.02-1.36,0-2.04-.07-2.44-1.21-3.8-3.38-4.06-2.48-.3-4.53,.95-5.04,3.21-.23,1.04-.22,2.14-.24,3.21-.04,1.96-.02,3.92-.03,5.87,0,.07-.05,.14-.12,.33Z"/>
  <path d="M593.15,87.35h-2.53c0-2.11,0-4.17,0-6.24,0-.72,.02-1.44,0-2.16-.08-2.7-1.43-4.16-3.87-4.22-2.7-.07-4.64,1.55-4.76,4.15-.1,2.35-.04,4.72-.05,7.07,0,.43,0,.86,0,1.37h-2.69v-14.86h2.47c.04,.59,.07,1.16,.12,1.95,1.74-1.81,3.78-2.25,6-2.13,2.74,.15,4.97,1.69,5.22,4.39,.33,3.51,.08,7.07,.08,10.67Z"/>
  <path d="M364.11,87.35h-2.62v-14.9h2.51c.04,.58,.07,1.16,.12,1.9,1.63-1.62,3.51-2.15,5.64-2.08,3.3,.1,5.6,2.07,5.77,5.37,.16,3.19,.04,6.39,.04,9.67h-2.66c-.03-.38-.08-.8-.08-1.21,0-2.36,.01-4.72,0-7.08-.02-2.7-1.28-4.16-3.65-4.3-2.65-.16-4.62,1.31-4.9,3.86-.19,1.78-.13,3.59-.17,5.39-.02,1.08,0,2.15,0,3.37Z"/>
  <path d="M469.04,72.43h2.49c.04,.63,.07,1.21,.12,1.95,1.64-1.65,3.53-2.16,5.66-2.1,3.21,.1,5.35,1.96,5.76,5.14,.08,.63,.08,1.28,.08,1.92,0,2.63,0,5.27,0,7.99h-2.72c0-1.19,.01-2.37,0-3.55-.02-1.76,.04-3.52-.1-5.27-.2-2.49-1.5-3.7-3.79-3.77-2.52-.07-4.47,1.34-4.69,3.68-.2,2.18-.11,4.39-.13,6.59,0,.75,0,1.51,0,2.33h-2.67v-14.9Z"/>
  <path d="M301.07,87.37h-2.67v-14.92h2.5c.03,.61,.06,1.19,.11,1.97,1.65-1.69,3.57-2.21,5.73-2.14,3.1,.11,5.41,1.89,5.64,4.95,.24,3.33,.06,6.69,.06,10.11h-2.64c0-1.75,0-3.45,0-5.16,0-1.16,.05-2.32-.02-3.48-.17-2.59-1.5-3.92-3.87-3.97-2.59-.05-4.5,1.38-4.69,3.81-.19,2.38-.1,4.79-.13,7.19,0,.51,0,1.02,0,1.65Z"/>
  <path d="M213.88,87.36h-2.85v-17.2h-6.67v-2.51h16.11v2.46h-6.59v17.25Z"/>
  <path d="M541.86,18.85h-12.95v-2.49h15.81c.03,.36,.07,.71,.07,1.05,0,4.2,0,8.4,0,12.6,0,1.86-.54,2.59-2.36,2.83-1.38,.18-2.79,.14-4.19,.14-.22,0-.53-.29-.63-.52-.26-.57-.43-1.19-.66-1.85,1.33,0,2.6,0,3.87,0,.58,0,1.06-.1,1.06-.81,0-3.59,0-7.18,0-10.95Z"/>
  <path d="M510.51,18.88v-2.52h15.79c0,3.02,0,5.97,0,8.92,0,1.68,.03,3.36-.02,5.04-.04,1.47-.71,2.24-2.16,2.39-1.31,.13-2.63,.13-3.95,.12-.27,0-.64-.28-.77-.53-.26-.48-.37-1.04-.61-1.73,1.24,0,2.38,.07,3.5-.04,.38-.03,1.03-.49,1.03-.77,.07-3.59,.05-7.17,.05-10.88h-12.87Z"/>
  <path d="M410.62,84.88h10.69v2.43h-13.44v-19.65h2.74v17.22Z"/>
  <path d="M268.02,75.51c-.7,.45-1.34,.86-1.96,1.26-2.69-2.53-5.77-2.75-7.85-.6-1.89,1.96-1.85,5.63,.08,7.54,2.07,2.04,5.29,1.8,7.73-.67,.63,.39,1.29,.79,1.94,1.19-1.24,2.59-4.47,3.85-7.89,3.14-3.57-.74-5.87-3.48-6.05-7.2-.17-3.53,1.95-6.56,5.27-7.56,3.57-1.07,7.07,.06,8.72,2.89Z"/>
  <path d="M598.75,74.68h-2.48v-2.28h2.41v-3.13h2.75v3.09h4.25v2.33h-4.16c0,2.95-.1,5.78,.04,8.6,.07,1.49,1.32,2.16,2.91,1.81,.46-.1,.9-.3,1.49-.5,.25,.56,.52,1.16,.84,1.87-1.71,1.28-3.56,1.33-5.44,.71-1.71-.57-2.52-1.94-2.57-3.68-.07-2.44-.03-4.88-.03-7.31,0-.43,0-.87,0-1.5Z"/>
  <path d="M629.26,72.44c.03,.72,.06,1.34,.09,2.01,2.23-1.86,3.25-2.26,5.36-2.08v2.51c-.28,.02-.5,.04-.73,.05-2.74,.12-4.35,1.67-4.47,4.44-.09,2.19-.04,4.39-.04,6.58,0,.43,0,.86,0,1.38h-2.73v-14.89h2.52Z"/>
  <path d="M193.6,87.35h-2.73v-19.69h2.73v19.69Z"/>
  <path d="M457.7,72.43h2.51c.04,.63,.07,1.21,.11,2.01,1.47-1.51,3.12-2.28,5.22-2.1v2.43c-.1,.06-.17,.13-.24,.12-3.88-.06-5.05,2.62-4.97,5.34,.06,2.27,0,4.55-.02,6.83,0,.07-.06,.14-.13,.27h-2.48v-14.91Z"/>
  <path d="M632,44.45c-1.81-5.22-3.6-10.38-5.46-15.72,.7-.28,1.64-.64,2.66-1.05,2.4,5.04,4.34,10.16,5.61,15.66-1.03,.41-2.02,.8-2.81,1.11Z"/>
  <path d="M600.76,28.84c.78,.15,1.68,.33,2.73,.53-.77,5.57-1.73,11.02-3.65,16.38-1.1-.46-2.08-.87-2.8-1.18,1.25-5.29,2.46-10.43,3.72-15.74Z"/>
  <path d="M609.19,17.57c.58-.59,1.22-1.24,2.07-2.1,3.71,3.01,7.43,6.04,11.31,9.19-1.03,.93-1.79,1.62-2.44,2.21-3.6-3.06-7.24-6.16-10.94-9.3Z"/>
  <path d="M290.5,72.43h2.64v14.89h-2.64v-14.89Z"/>
  <path d="M424.42,52.1c-.64-.81-1.2-1.52-1.82-2.3,2.01-1.02,4.02-1.95,5.94-3.05,1.93-1.1,3.76-2.36,5.74-3.62,.73,.51,1.58,1.1,2.58,1.81-3.89,2.91-8.02,5.16-12.43,7.16Z"/>
  <path d="M458.72,49.45c-.86,.99-1.49,1.71-2.1,2.4-3.94-2.29-7.85-4.56-11.79-6.86,0,.01,.01-.11,.07-.19,1.43-1.96,1.46-2.01,3.62-.88,3.38,1.77,6.71,3.63,10.2,5.52Z"/>
  <path d="M246.98,23.76v-2.47h15.12v2.47h-15.12Z"/>
  <path d="M490.76,87.34h-2.58v-14.91h2.58v14.91Z"/>
  <path d="M480.86,21.63c-.59-.5-1.16-.98-1.76-1.48,1.2-.71,2.35-1.38,3.62-2.14-1.04-.55-1.9-1.01-2.78-1.48q1.26-1.58,2.94-.74c1.64,.82,1.7,.87,2.89-.52,.95-1.11,1.77-.19,2.9-.09-.82,.95-1.51,1.74-2.22,2.57,.89,.62,1.77,1.23,2.75,1.92-.56,.55-1.06,1.03-1.55,1.5-.12-.02-.21-.01-.26-.05-.88-.61-1.74-1.65-2.65-1.71-.83-.05-1.73,.96-2.61,1.49-.41,.25-.83,.47-1.28,.73Z"/>
  <path d="M392.57,16.53c1.18-1.6,1.19-1.6,2.88-.75,.5,.25,1,.5,1.6,.8,1.16-.82,1.99-2.92,4.06-1.21-.65,.76-1.33,1.56-2.04,2.39,.91,.64,1.79,1.25,2.71,1.89-.55,.57-1.04,1.08-1.5,1.55-.16-.04-.25-.04-.31-.08-.84-.6-1.64-1.61-2.54-1.7-.79-.08-1.68,.87-2.52,1.37-.48,.28-.96,.56-1.45,.84-.59-.49-1.14-.95-1.76-1.47,1.18-.7,2.31-1.38,3.61-2.15-1.03-.55-1.89-1.02-2.75-1.48Z"/>
  <path d="M260.66,32.12v2.44h-11.96v-2.44h11.96Z"/>
  <path d="M529.04,30.94c-.41-.86-.76-1.6-1.15-2.41,3.92-1.36,7.75-2.68,11.54-3.99,.12,.1,.22,.14,.23,.2,.53,2.03,.53,2.03-1.4,2.76-3.02,1.13-6.04,2.26-9.22,3.45Z"/>
  <path d="M520.59,25.32q.71,2.23-1.3,3.07c-2.83,1.17-5.66,2.33-8.57,3.53-.44-.9-.81-1.68-1.24-2.55,3.74-1.36,7.42-2.7,11.11-4.04Z"/>
  <path d="M260.69,26.77v2.31h-12v-2.31h12Z"/>
  <path d="M440.26,30.12c-.86,2.7-1.65,5.21-2.51,7.91-1.02-.62-1.71-1.04-2.22-1.35,.77-2.37,1.49-4.62,2.26-6.98,.58,.1,1.32,.22,2.48,.42Z"/>
  <path d="M257.35,19.32c-.95,.55-1.73,1.01-2.53,1.47-1.05-1.87-2.06-3.67-3.14-5.59,.77-.4,1.53-.8,2.45-1.27,1.07,1.8,2.13,3.56,3.23,5.4Z"/>
  <path d="M537.4,22.8c-.78,.94-1.31,1.57-1.76,2.11-1.87-1.33-3.67-2.62-5.57-3.96,.37-.44,.75-.95,1.2-1.37,.18-.16,.62-.27,.79-.17,1.75,1.07,3.47,2.2,5.33,3.39Z"/>
  <path d="M512.38,20.97s0-.09,.02-.12c1.84-2.2,1.17-1.87,3.31-.61,.95,.56,1.82,1.28,2.71,1.95,.32,.24,.6,.52,.98,.86-.58,.7-1.1,1.33-1.6,1.94-1.81-1.35-3.59-2.67-5.42-4.03Z"/>
  <path d="M491.3,67.76c0,1.07-.71,1.78-1.8,1.8-1.09,.02-1.86-.7-1.87-1.74,0-1.05,.73-1.77,1.82-1.78,1.14-.01,1.85,.64,1.85,1.71Z"/>
  <path d="M293.7,67.72c.03,1.02-.74,1.81-1.8,1.84-1.05,.04-1.92-.72-1.95-1.69-.03-.99,.77-1.8,1.81-1.82,1.11-.03,1.91,.66,1.94,1.67Z"/>
  <path d="M276.39,38.28h7.93v-2.83h-9.45v-3.4h8.18V15.99h-19.42v16.1h7.98v3.43h-9.5v2.81h8.08c-2.4,3.9-5.22,7.01-9.13,9.44v-10.12h-12.34v13.91h2.59c.05-.63,.1-1.17,.16-1.81h9.52c.09-.44,.16-.78,.26-1.27,.6,.7,1.09,1.26,1.59,1.84,3.66-2.36,6.3-5.57,8.9-8.95v10.73h3.11v-11.43c2.49,3.66,5.02,6.87,8.35,9.36,.76-.84,1.44-1.59,2.16-2.38-3.61-2.49-6.53-5.53-8.96-9.37Zm-18.22,8.73h-6.7v-6.73h6.7v6.73Zm13.62-17.52h0s-5.37,0-5.37,0v-4.16h5.37v4.15Zm0-6.93h-5.29v-3.95h5.29v3.95Zm2.86-3.95h5.46v3.98h-5.46v-3.98Zm.03,10.77v-4.04h5.45v4.04h-5.45Z"/>
</svg>