<svg width="100" height="101" viewBox="0 0 100 101" fill="none" xmlns="http://www.w3.org/2000/svg">
<mask id="mask0_853_1115" style="mask-type:luminance" maskUnits="userSpaceOnUse" x="0" y="0" width="100" height="101">
<path d="M0 0.800049H100V100.8H0V0.800049Z" fill="white"/>
</mask>
<g mask="url(#mask0_853_1115)">
<path d="M24.9995 42.4661H33.3325C35.5426 42.4661 37.6621 43.344 39.2249 44.9067C40.7876 46.4695 41.6655 48.589 41.6655 50.7991V71.6331H29.1655C26.9554 71.6331 24.8357 70.7551 23.2729 69.1922C21.71 67.6294 20.832 65.5097 20.832 63.2996C20.832 61.0894 21.71 58.9697 23.2729 57.4069C24.8357 55.8441 26.9554 54.9661 29.1655 54.9661H41.6655M58.3325 29.9661V71.6331M58.3325 50.8001C58.3324 49.7057 58.5478 48.622 58.9666 47.6109C59.3853 46.5997 59.9991 45.681 60.7729 44.9071C61.5467 44.1332 62.4653 43.5193 63.4764 43.1005C64.4875 42.6816 65.5711 42.4661 66.6655 42.4661H70.8325C73.0426 42.4661 75.1621 43.344 76.7249 44.9067C78.2876 46.4695 79.1655 48.589 79.1655 50.7991V63.2991C79.1657 64.3935 78.9502 65.4772 78.5315 66.4883C78.1128 67.4994 77.499 68.4181 76.7252 69.192C75.9514 69.9659 75.0327 70.5798 74.0217 70.9987C73.0106 71.4175 71.9269 71.6331 70.8325 71.6331H66.6655C65.5711 71.6331 64.4875 71.4175 63.4764 70.9987C62.4653 70.5798 61.5467 69.9659 60.7729 69.192C59.9991 68.4181 59.3853 67.4994 58.9666 66.4883C58.5478 65.4772 58.3324 64.3935 58.3325 63.2991V50.8001Z" stroke="#1240BF" stroke-width="4.167" stroke-linecap="round" stroke-linejoin="round"/>
</g>
</svg>
